<svg width="73" height="73" viewBox="0 0 73 73" fill="none" xmlns="http://www.w3.org/2000/svg">
<path d="M48.6667 21.2917C48.6667 20.485 48.9872 19.7113 49.5576 19.1409C50.1281 18.5705 50.9017 18.25 51.7084 18.25C52.5151 18.25 53.2888 18.5705 53.8592 19.1409C54.4296 19.7113 54.7501 20.485 54.7501 21.2917C54.7501 22.0984 54.4296 22.872 53.8592 23.4424C53.2888 24.0129 52.5151 24.3333 51.7084 24.3333C50.9017 24.3333 50.1281 24.0129 49.5576 23.4424C48.9872 22.872 48.6667 22.0984 48.6667 21.2917Z" fill="#F8F8F8"/>
<path fill-rule="evenodd" clip-rule="evenodd" d="M36.4999 22.052C32.6681 22.052 28.9932 23.5742 26.2837 26.2837C23.5742 28.9932 22.052 32.6681 22.052 36.4999C22.052 40.3317 23.5742 44.0066 26.2837 46.7161C28.9932 49.4256 32.6681 50.9478 36.4999 50.9478C40.3317 50.9478 44.0066 49.4256 46.7161 46.7161C49.4256 44.0066 50.9478 40.3317 50.9478 36.4999C50.9478 32.6681 49.4256 28.9932 46.7161 26.2837C44.0066 23.5742 40.3317 22.052 36.4999 22.052ZM26.6145 36.4999C26.6145 33.8781 27.656 31.3638 29.5099 29.5099C31.3638 27.656 33.8781 26.6145 36.4999 26.6145C39.1217 26.6145 41.6361 27.656 43.49 29.5099C45.3438 31.3638 46.3853 33.8781 46.3853 36.4999C46.3853 39.1217 45.3438 41.6361 43.49 43.49C41.6361 45.3438 39.1217 46.3853 36.4999 46.3853C33.8781 46.3853 31.3638 45.3438 29.5099 43.49C27.656 41.6361 26.6145 39.1217 26.6145 36.4999Z" fill="#F8F8F8"/>
<path fill-rule="evenodd" clip-rule="evenodd" d="M52.4934 8.61716C41.8639 7.43881 31.1367 7.43881 20.5072 8.61716C14.3874 9.30154 9.44465 14.1226 8.72681 20.2728C7.46574 31.0543 7.46574 41.946 8.72681 52.7274C9.44465 58.8777 14.3843 63.6987 20.5072 64.3831C31.1368 65.5602 41.8638 65.5602 52.4934 64.3831C58.6132 63.6987 63.5559 58.8777 64.2737 52.7274C65.535 41.946 65.535 31.0543 64.2737 20.2728C63.5559 14.1226 58.6162 9.30154 52.4934 8.61716ZM21.0121 13.1492C31.306 12.0082 41.6945 12.0082 51.9884 13.1492C56.0339 13.6055 59.2732 16.7962 59.7447 20.8051C60.9643 31.2329 60.9643 41.7673 59.7447 52.1951C59.5008 54.1571 58.6027 55.9796 57.1953 57.3682C55.7879 58.7568 53.9535 59.6305 51.9884 59.848C41.6945 60.9891 31.306 60.9891 21.0121 59.848C19.047 59.6305 17.2126 58.7568 15.8052 57.3682C14.3979 55.9796 13.4997 54.1571 13.2559 52.1951C12.0363 41.7673 12.0363 31.2329 13.2559 20.8051C13.4997 18.8431 14.3979 17.0206 15.8052 15.632C17.2126 14.2434 19.047 13.3668 21.0121 13.1492Z" fill="#F8F8F8"/>
</svg>
