<svg width="24" height="24" viewBox="0 0 24 24" fill="none" xmlns="http://www.w3.org/2000/svg">
<path d="M18 16.016C19.245 16.545 20 17.239 20 18C20 19.657 16.418 21 12 21C7.582 21 4 19.657 4 18C4 17.24 4.755 16.544 6 16.016" stroke="#4C4556" stroke-width="2" stroke-linecap="round" stroke-linejoin="round"/>
<path d="M17 8.444C17 11.537 12 17 12 17C12 17 7 11.537 7 8.444C7 5.352 9.239 3 12 3C14.761 3 17 5.352 17 8.444Z" stroke="#4C4556" stroke-width="2" stroke-linecap="round" stroke-linejoin="round"/>
<path d="M12 9C12.5523 9 13 8.55228 13 8C13 7.44772 12.5523 7 12 7C11.4477 7 11 7.44772 11 8C11 8.55228 11.4477 9 12 9Z" stroke="#4C4556" stroke-width="2" stroke-linecap="round" stroke-linejoin="round"/>
</svg>
