<svg width="256" height="120" viewBox="0 0 256 120" fill="none" xmlns="http://www.w3.org/2000/svg">
<path d="M0 0H256V120H0V0Z" fill="#4C4556"/>
<g filter="url(#filter0_d_214_10)">
<path d="M64.2 57.68C64.2 58.8 64.08 60.0267 63.84 61.36C63.6267 62.6667 63.3067 63.9733 62.88 65.28C62.48 66.56 61.9733 67.8 61.36 69C60.7733 70.2 60.1067 71.2667 59.36 72.2C58.6133 73.1333 57.8 73.88 56.92 74.44C56.0667 74.9733 55.16 75.24 54.2 75.24C52.68 75.24 51.48 74.8533 50.6 74.08C49.72 73.3067 49.28 72.12 49.28 70.52C49.28 70.3067 49.2933 70.0267 49.32 69.68C49.3467 69.3333 49.4 68.9733 49.48 68.6L52.36 55H56.36L53.48 68.6C53.3733 69.0267 53.32 69.4667 53.32 69.92C53.32 70.5867 53.4533 71.1333 53.72 71.56C53.9867 71.9867 54.4267 72.2 55.04 72.2C55.7867 72.2 56.4667 71.96 57.08 71.48C57.72 70.9733 58.3067 70.32 58.84 69.52C59.3733 68.6933 59.84 67.7733 60.24 66.76C60.64 65.72 60.9733 64.68 61.24 63.64C61.5067 62.5733 61.7067 61.56 61.84 60.6C62 59.6133 62.08 58.7467 62.08 58C61.8933 58.16 61.6533 58.2533 61.36 58.28C61.0667 58.3067 60.84 58.32 60.68 58.32C60.3067 58.32 60.0133 58.1467 59.8 57.8C59.5867 57.4533 59.48 57.0533 59.48 56.6C59.48 56.0667 59.6533 55.5467 60 55.04C60.3467 54.5333 60.8533 54.28 61.52 54.28C62.3733 54.28 63.0267 54.5733 63.48 55.16C63.96 55.7467 64.2 56.5867 64.2 57.68ZM69.0966 49.24C69.0966 48.52 69.3499 47.8933 69.8566 47.36C70.3632 46.8267 70.9899 46.56 71.7366 46.56C72.4566 46.56 73.0832 46.8267 73.6166 47.36C74.1499 47.8933 74.4166 48.52 74.4166 49.24C74.4166 49.9867 74.1499 50.6133 73.6166 51.12C73.0832 51.6267 72.4566 51.88 71.7366 51.88C70.9899 51.88 70.3632 51.6267 69.8566 51.12C69.3499 50.6133 69.0966 49.9867 69.0966 49.24ZM72.8166 55L69.8966 68.6C69.7632 69.1333 69.6966 69.7333 69.6966 70.4C69.6966 70.8533 69.7766 71.2667 69.9366 71.64C70.0966 72.0133 70.4299 72.2 70.9366 72.2C71.5766 72.2 72.2166 71.8133 72.8566 71.04C73.5232 70.2667 74.1499 69.2 74.7366 67.84H76.2166C75.5766 69.52 74.9366 70.8533 74.2966 71.84C73.6566 72.8 73.0299 73.5333 72.4166 74.04C71.8299 74.5467 71.2566 74.8667 70.6966 75C70.1632 75.16 69.6832 75.24 69.2566 75.24C68.5632 75.24 67.9899 75.12 67.5366 74.88C67.0832 74.64 66.7232 74.32 66.4566 73.92C66.1899 73.52 65.9899 73.0533 65.8566 72.52C65.7499 71.9867 65.6966 71.4133 65.6966 70.8C65.6966 70.32 65.7232 69.8267 65.7766 69.32C65.8566 68.8133 65.9499 68.32 66.0566 67.84L68.7766 55H72.8166ZM82.1684 53.52L81.4884 56.6C82.1018 56.0667 82.7818 55.64 83.5284 55.32C84.3018 54.9733 85.1284 54.8 86.0084 54.8C86.7018 54.8 87.3418 54.92 87.9284 55.16C88.5151 55.4 89.0218 55.7867 89.4484 56.32C89.8751 56.8533 90.2084 57.5467 90.4484 58.4C90.6884 59.2267 90.8084 60.2533 90.8084 61.48C90.8084 62.3333 90.7418 63.2667 90.6084 64.28C90.4751 65.2933 90.2618 66.32 89.9684 67.36C89.6751 68.3733 89.2751 69.36 88.7684 70.32C88.2884 71.2533 87.6884 72.0933 86.9684 72.84C86.2484 73.56 85.4084 74.1467 84.4484 74.6C83.4884 75.0267 82.3951 75.24 81.1684 75.24C80.4484 75.24 79.8218 75.0667 79.2884 74.72C78.7818 74.3467 78.3418 73.8667 77.9684 73.28L75.6884 84L71.4484 85L78.1284 53.52H82.1684ZM84.0884 57.4C83.4751 57.4 82.9018 57.5733 82.3684 57.92C81.8618 58.2667 81.3818 58.7467 80.9284 59.36L78.3684 71.28C78.6618 71.7867 79.0084 72.1467 79.4084 72.36C79.8351 72.5733 80.2084 72.68 80.5284 72.68C81.7284 72.68 82.7284 72.28 83.5284 71.48C84.3284 70.6533 84.9684 69.6667 85.4484 68.52C85.9551 67.3467 86.3151 66.1333 86.5284 64.88C86.7418 63.6 86.8484 62.4933 86.8484 61.56C86.8484 60.76 86.7684 60.0933 86.6084 59.56C86.4484 59.0267 86.2351 58.6 85.9684 58.28C85.7018 57.96 85.4084 57.7333 85.0884 57.6C84.7684 57.4667 84.4351 57.4 84.0884 57.4ZM109.923 55L107.003 68.6C106.869 69.1333 106.803 69.7333 106.803 70.4C106.803 70.8533 106.883 71.2667 107.043 71.64C107.203 72.0133 107.536 72.2 108.043 72.2C108.683 72.2 109.323 71.8133 109.963 71.04C110.629 70.2667 111.256 69.2 111.843 67.84H113.323C112.683 69.52 112.043 70.8533 111.403 71.84C110.763 72.8 110.136 73.5333 109.523 74.04C108.936 74.5467 108.363 74.8667 107.803 75C107.269 75.16 106.789 75.24 106.363 75.24C105.483 75.24 104.749 74.9333 104.163 74.32C103.603 73.7067 103.269 72.7067 103.163 71.32C102.549 72.4133 101.696 73.3467 100.603 74.12C99.5358 74.8667 98.3625 75.24 97.0825 75.24C96.4425 75.24 95.8158 75.1333 95.2025 74.92C94.5892 74.68 94.0425 74.3067 93.5625 73.8C93.0825 73.2667 92.6958 72.6 92.4025 71.8C92.1092 70.9733 91.9625 69.9733 91.9625 68.8C91.9625 67.8933 92.0558 66.92 92.2425 65.88C92.4558 64.84 92.7492 63.8 93.1225 62.76C93.4958 61.72 93.9758 60.72 94.5625 59.76C95.1492 58.8 95.8158 57.96 96.5625 57.24C97.3092 56.4933 98.1492 55.9067 99.0825 55.48C100.043 55.0267 101.083 54.8 102.203 54.8C102.843 54.8 103.496 54.9467 104.163 55.24C104.829 55.5333 105.269 56.0933 105.483 56.92L105.883 55H109.923ZM98.7625 72.2C99.1892 72.2 99.6292 72.0933 100.083 71.88C100.536 71.64 100.963 71.3333 101.363 70.96C101.789 70.56 102.163 70.0933 102.483 69.56C102.803 69.0267 103.029 68.4533 103.163 67.84L105.083 58.76C105.003 58.3067 104.803 57.9067 104.483 57.56C104.163 57.1867 103.696 57 103.083 57C101.989 57 101.016 57.4 100.163 58.2C99.3092 59 98.5892 59.9733 98.0025 61.12C97.4158 62.2667 96.9758 63.4933 96.6825 64.8C96.3892 66.1067 96.2425 67.2533 96.2425 68.24C96.2425 69.76 96.4692 70.8 96.9225 71.36C97.3758 71.92 97.9892 72.2 98.7625 72.2ZM119.297 53.52L118.617 56.6C119.23 56.0667 119.91 55.64 120.657 55.32C121.43 54.9733 122.257 54.8 123.137 54.8C123.83 54.8 124.47 54.92 125.057 55.16C125.643 55.4 126.15 55.7867 126.577 56.32C127.003 56.8533 127.337 57.5467 127.577 58.4C127.817 59.2267 127.937 60.2533 127.937 61.48C127.937 62.3333 127.87 63.2667 127.737 64.28C127.603 65.2933 127.39 66.32 127.097 67.36C126.803 68.3733 126.403 69.36 125.897 70.32C125.417 71.2533 124.817 72.0933 124.097 72.84C123.377 73.56 122.537 74.1467 121.577 74.6C120.617 75.0267 119.523 75.24 118.297 75.24C117.577 75.24 116.95 75.0667 116.417 74.72C115.91 74.3467 115.47 73.8667 115.097 73.28L112.817 84L108.577 85L115.257 53.52H119.297ZM121.217 57.4C120.603 57.4 120.03 57.5733 119.497 57.92C118.99 58.2667 118.51 58.7467 118.057 59.36L115.497 71.28C115.79 71.7867 116.137 72.1467 116.537 72.36C116.963 72.5733 117.337 72.68 117.657 72.68C118.857 72.68 119.857 72.28 120.657 71.48C121.457 70.6533 122.097 69.6667 122.577 68.52C123.083 67.3467 123.443 66.1333 123.657 64.88C123.87 63.6 123.977 62.4933 123.977 61.56C123.977 60.76 123.897 60.0933 123.737 59.56C123.577 59.0267 123.363 58.6 123.097 58.28C122.83 57.96 122.537 57.7333 122.217 57.6C121.897 57.4667 121.563 57.4 121.217 57.4ZM147.051 55L144.131 68.6C143.997 69.1333 143.931 69.7333 143.931 70.4C143.931 70.8533 144.011 71.2667 144.171 71.64C144.331 72.0133 144.664 72.2 145.171 72.2C145.811 72.2 146.451 71.8133 147.091 71.04C147.757 70.2667 148.384 69.2 148.971 67.84H150.451C149.811 69.52 149.171 70.8533 148.531 71.84C147.891 72.8 147.264 73.5333 146.651 74.04C146.064 74.5467 145.491 74.8667 144.931 75C144.397 75.16 143.917 75.24 143.491 75.24C142.611 75.24 141.877 74.9333 141.291 74.32C140.731 73.7067 140.397 72.7067 140.291 71.32C139.677 72.4133 138.824 73.3467 137.731 74.12C136.664 74.8667 135.491 75.24 134.211 75.24C133.571 75.24 132.944 75.1333 132.331 74.92C131.717 74.68 131.171 74.3067 130.691 73.8C130.211 73.2667 129.824 72.6 129.531 71.8C129.237 70.9733 129.091 69.9733 129.091 68.8C129.091 67.8933 129.184 66.92 129.371 65.88C129.584 64.84 129.877 63.8 130.251 62.76C130.624 61.72 131.104 60.72 131.691 59.76C132.277 58.8 132.944 57.96 133.691 57.24C134.437 56.4933 135.277 55.9067 136.211 55.48C137.171 55.0267 138.211 54.8 139.331 54.8C139.971 54.8 140.624 54.9467 141.291 55.24C141.957 55.5333 142.397 56.0933 142.611 56.92L143.011 55H147.051ZM135.891 72.2C136.317 72.2 136.757 72.0933 137.211 71.88C137.664 71.64 138.091 71.3333 138.491 70.96C138.917 70.56 139.291 70.0933 139.611 69.56C139.931 69.0267 140.157 68.4533 140.291 67.84L142.211 58.76C142.131 58.3067 141.931 57.9067 141.611 57.56C141.291 57.1867 140.824 57 140.211 57C139.117 57 138.144 57.4 137.291 58.2C136.437 59 135.717 59.9733 135.131 61.12C134.544 62.2667 134.104 63.4933 133.811 64.8C133.517 66.1067 133.371 67.2533 133.371 68.24C133.371 69.76 133.597 70.8 134.051 71.36C134.504 71.92 135.117 72.2 135.891 72.2ZM156.105 55L155.465 58C155.971 57.3067 156.478 56.7467 156.985 56.32C157.491 55.8933 157.971 55.5733 158.425 55.36C158.905 55.12 159.345 54.9733 159.745 54.92C160.171 54.84 160.558 54.8 160.905 54.8C161.705 54.8 162.371 54.92 162.905 55.16C163.438 55.4 163.865 55.7333 164.185 56.16C164.505 56.56 164.718 57.04 164.825 57.6C164.958 58.1333 165.025 58.7067 165.025 59.32C165.025 60.2 164.918 61.12 164.705 62.08C164.518 63.04 164.305 63.9867 164.065 64.92C163.825 65.8533 163.598 66.7733 163.385 67.68C163.198 68.5867 163.105 69.44 163.105 70.24C163.105 70.8 163.185 71.2667 163.345 71.64C163.505 72.0133 163.825 72.2 164.305 72.2C165.558 72.2 166.811 70.7467 168.065 67.84H169.545C168.905 69.52 168.265 70.8533 167.625 71.84C166.985 72.8267 166.358 73.5733 165.745 74.08C165.158 74.56 164.598 74.8667 164.065 75C163.558 75.16 163.105 75.24 162.705 75.24C161.318 75.24 160.331 74.8133 159.745 73.96C159.158 73.08 158.865 72 158.865 70.72C158.865 69.84 158.958 68.92 159.145 67.96C159.358 67 159.585 66.0533 159.825 65.12C160.065 64.1867 160.278 63.2933 160.465 62.44C160.678 61.56 160.785 60.76 160.785 60.04C160.785 59.3733 160.665 58.84 160.425 58.44C160.185 58.04 159.718 57.84 159.025 57.84C157.371 57.84 155.891 59.2667 154.585 62.12L151.825 75H147.825L152.065 55H156.105ZM175.177 55L174.537 58C175.043 57.3067 175.55 56.7467 176.057 56.32C176.563 55.8933 177.043 55.5733 177.497 55.36C177.977 55.12 178.417 54.9733 178.817 54.92C179.243 54.84 179.63 54.8 179.977 54.8C180.777 54.8 181.443 54.92 181.977 55.16C182.51 55.4 182.937 55.7333 183.257 56.16C183.577 56.56 183.79 57.04 183.897 57.6C184.03 58.1333 184.097 58.7067 184.097 59.32C184.097 60.2 183.99 61.12 183.777 62.08C183.59 63.04 183.377 63.9867 183.137 64.92C182.897 65.8533 182.67 66.7733 182.457 67.68C182.27 68.5867 182.177 69.44 182.177 70.24C182.177 70.8 182.257 71.2667 182.417 71.64C182.577 72.0133 182.897 72.2 183.377 72.2C184.63 72.2 185.883 70.7467 187.137 67.84H188.617C187.977 69.52 187.337 70.8533 186.697 71.84C186.057 72.8267 185.43 73.5733 184.817 74.08C184.23 74.56 183.67 74.8667 183.137 75C182.63 75.16 182.177 75.24 181.777 75.24C180.39 75.24 179.403 74.8133 178.817 73.96C178.23 73.08 177.937 72 177.937 70.72C177.937 69.84 178.03 68.92 178.217 67.96C178.43 67 178.657 66.0533 178.897 65.12C179.137 64.1867 179.35 63.2933 179.537 62.44C179.75 61.56 179.857 60.76 179.857 60.04C179.857 59.3733 179.737 58.84 179.497 58.44C179.257 58.04 178.79 57.84 178.097 57.84C176.443 57.84 174.963 59.2667 173.657 62.12L170.897 75H166.897L171.137 55H175.177ZM205.008 55L202.088 68.6C202.035 68.8933 201.995 69.1867 201.968 69.48C201.942 69.7733 201.928 70.0533 201.928 70.32C201.928 70.88 202.022 71.3333 202.208 71.68C202.422 72.0267 202.795 72.2 203.328 72.2C203.515 72.2 203.702 72.1867 203.888 72.16C204.102 72.1333 204.342 72.0667 204.608 71.96C204.288 73.24 203.862 74.1067 203.328 74.56C202.795 75.0133 202.168 75.24 201.448 75.24C200.568 75.24 199.835 74.9333 199.248 74.32C198.688 73.7067 198.355 72.7067 198.248 71.32C197.635 72.4133 196.782 73.3467 195.688 74.12C194.622 74.8667 193.448 75.24 192.168 75.24C191.528 75.24 190.902 75.1333 190.288 74.92C189.675 74.68 189.128 74.3067 188.648 73.8C188.168 73.2667 187.782 72.6 187.488 71.8C187.195 70.9733 187.048 69.9733 187.048 68.8C187.048 67.8933 187.142 66.92 187.328 65.88C187.542 64.84 187.835 63.8 188.208 62.76C188.582 61.72 189.062 60.72 189.648 59.76C190.235 58.8 190.902 57.96 191.648 57.24C192.395 56.4933 193.235 55.9067 194.168 55.48C195.128 55.0267 196.168 54.8 197.288 54.8C197.928 54.8 198.582 54.9467 199.248 55.24C199.915 55.5333 200.355 56.0933 200.568 56.92L200.968 55H205.008ZM193.848 72.2C194.275 72.2 194.715 72.0933 195.168 71.88C195.622 71.64 196.048 71.3333 196.448 70.96C196.875 70.56 197.248 70.0933 197.568 69.56C197.888 69.0267 198.115 68.4533 198.248 67.84L200.168 58.76C200.088 58.3067 199.888 57.9067 199.568 57.56C199.248 57.1867 198.782 57 198.168 57C197.075 57 196.102 57.4 195.248 58.2C194.395 59 193.675 59.9733 193.088 61.12C192.502 62.2667 192.062 63.4933 191.768 64.8C191.475 66.1067 191.328 67.2533 191.328 68.24C191.328 69.76 191.555 70.8 192.008 71.36C192.462 71.92 193.075 72.2 193.848 72.2Z" fill="white"/>
</g>
<defs>
<filter id="filter0_d_214_10" x="45.2798" y="46.56" width="163.729" height="46.44" filterUnits="userSpaceOnUse" color-interpolation-filters="sRGB">
<feFlood flood-opacity="0" result="BackgroundImageFix"/>
<feColorMatrix in="SourceAlpha" type="matrix" values="0 0 0 0 0 0 0 0 0 0 0 0 0 0 0 0 0 0 127 0" result="hardAlpha"/>
<feOffset dy="4"/>
<feGaussianBlur stdDeviation="2"/>
<feComposite in2="hardAlpha" operator="out"/>
<feColorMatrix type="matrix" values="0 0 0 0 0 0 0 0 0 0 0 0 0 0 0 0 0 0 0.25 0"/>
<feBlend mode="normal" in2="BackgroundImageFix" result="effect1_dropShadow_214_10"/>
<feBlend mode="normal" in="SourceGraphic" in2="effect1_dropShadow_214_10" result="shape"/>
</filter>
</defs>
</svg>
