<svg width="73" height="73" viewBox="0 0 73 73" fill="none" xmlns="http://www.w3.org/2000/svg">
<path d="M68.3157 18.2501C65.9737 19.3147 63.4491 20.0142 60.8332 20.3488C63.5099 18.7367 65.5783 16.1817 66.5516 13.1097C64.027 14.6305 61.2287 15.6951 58.2782 16.3034C55.8753 13.6876 52.4991 12.1667 48.6666 12.1667C41.5187 12.1667 35.6787 18.0067 35.6787 25.2155C35.6787 26.2497 35.8003 27.2534 36.0133 28.1963C25.1849 27.6488 15.5428 22.4476 9.12492 14.5697C7.9995 16.4859 7.36075 18.7367 7.36075 21.1092C7.36075 25.6413 9.642 29.6563 13.1703 31.9376C11.0107 31.9376 9.00325 31.3292 7.23908 30.4167V30.508C7.23908 36.8347 11.7407 42.1272 17.7024 43.3134C15.7884 43.8372 13.779 43.9101 11.832 43.5263C12.6581 46.1193 14.2761 48.3882 16.4584 50.014C18.6408 51.6398 21.2777 52.5409 23.9987 52.5905C19.3864 56.2418 13.6692 58.2155 7.78658 58.1872C6.75242 58.1872 5.71825 58.1263 4.68408 58.0047C10.4632 61.7155 17.3374 63.8751 24.6982 63.8751C48.6666 63.8751 61.837 43.9826 61.837 26.7363C61.837 26.1584 61.837 25.6109 61.8066 25.033C64.3616 23.208 66.5516 20.8963 68.3157 18.2501Z" fill="#F8F8F8"/>
</svg>
