<svg width="671" height="172" viewBox="0 0 671 172" fill="none" xmlns="http://www.w3.org/2000/svg">
<g filter="url(#filter0_dddddd_263_8)">
<path d="M67.6 47.39C67.6 52.15 67.09 57.3633 66.07 63.03C65.1633 68.5833 63.8033 74.1367 61.99 79.69C60.29 85.13 58.1367 90.4 55.53 95.5C53.0367 100.6 50.2033 105.133 47.03 109.1C43.8567 113.067 40.4 116.24 36.66 118.62C33.0333 120.887 29.18 122.02 25.1 122.02C18.64 122.02 13.54 120.377 9.8 117.09C6.06 113.803 4.19 108.76 4.19 101.96C4.19 101.053 4.24667 99.8633 4.36 98.39C4.47333 96.9167 4.7 95.3867 5.04 93.8L17.28 36H34.28L22.04 93.8C21.5867 95.6133 21.36 97.4833 21.36 99.41C21.36 102.243 21.9267 104.567 23.06 106.38C24.1933 108.193 26.0633 109.1 28.67 109.1C31.8433 109.1 34.7333 108.08 37.34 106.04C40.06 103.887 42.5533 101.11 44.82 97.71C47.0867 94.1967 49.07 90.2867 50.77 85.98C52.47 81.56 53.8867 77.14 55.02 72.72C56.1533 68.1867 57.0033 63.88 57.57 59.8C58.25 55.6067 58.59 51.9233 58.59 48.75C57.7967 49.43 56.7767 49.8267 55.53 49.94C54.2833 50.0533 53.32 50.11 52.64 50.11C51.0533 50.11 49.8067 49.3733 48.9 47.9C47.9933 46.4267 47.54 44.7267 47.54 42.8C47.54 40.5333 48.2767 38.3233 49.75 36.17C51.2233 34.0167 53.3767 32.94 56.21 32.94C59.8367 32.94 62.6133 34.1867 64.54 36.68C66.58 39.1733 67.6 42.7433 67.6 47.39ZM88.4104 11.52C88.4104 8.46 89.4871 5.79666 91.6404 3.52999C93.7937 1.26333 96.4571 0.129996 99.6304 0.129996C102.69 0.129996 105.354 1.26333 107.62 3.52999C109.887 5.79666 111.02 8.46 111.02 11.52C111.02 14.6933 109.887 17.3567 107.62 19.51C105.354 21.6633 102.69 22.74 99.6304 22.74C96.4571 22.74 93.7937 21.6633 91.6404 19.51C89.4871 17.3567 88.4104 14.6933 88.4104 11.52ZM104.22 36L91.8104 93.8C91.2437 96.0667 90.9604 98.6167 90.9604 101.45C90.9604 103.377 91.3004 105.133 91.9804 106.72C92.6604 108.307 94.0771 109.1 96.2304 109.1C98.9504 109.1 101.67 107.457 104.39 104.17C107.224 100.883 109.887 96.35 112.38 90.57H118.67C115.95 97.71 113.23 103.377 110.51 107.57C107.79 111.65 105.127 114.767 102.52 116.92C100.027 119.073 97.5904 120.433 95.2104 121C92.9437 121.68 90.9037 122.02 89.0904 122.02C86.1437 122.02 83.7071 121.51 81.7804 120.49C79.8537 119.47 78.3237 118.11 77.1904 116.41C76.0571 114.71 75.2071 112.727 74.6404 110.46C74.1871 108.193 73.9604 105.757 73.9604 103.15C73.9604 101.11 74.0737 99.0133 74.3004 96.86C74.6404 94.7067 75.0371 92.61 75.4904 90.57L87.0504 36H104.22ZM143.966 29.71L141.076 42.8C143.683 40.5333 146.573 38.72 149.746 37.36C153.033 35.8867 156.546 35.15 160.286 35.15C163.233 35.15 165.953 35.66 168.446 36.68C170.939 37.7 173.093 39.3433 174.906 41.61C176.719 43.8767 178.136 46.8233 179.156 50.45C180.176 53.9633 180.686 58.3267 180.686 63.54C180.686 67.1667 180.403 71.1333 179.836 75.44C179.269 79.7467 178.363 84.11 177.116 88.53C175.869 92.8367 174.169 97.03 172.016 101.11C169.976 105.077 167.426 108.647 164.366 111.82C161.306 114.88 157.736 117.373 153.656 119.3C149.576 121.113 144.929 122.02 139.716 122.02C136.656 122.02 133.993 121.283 131.726 119.81C129.573 118.223 127.703 116.183 126.116 113.69L116.426 159.25L98.4059 163.5L126.796 29.71H143.966ZM152.126 46.2C149.519 46.2 147.083 46.9367 144.816 48.41C142.663 49.8833 140.623 51.9233 138.696 54.53L127.816 105.19C129.063 107.343 130.536 108.873 132.236 109.78C134.049 110.687 135.636 111.14 136.996 111.14C142.096 111.14 146.346 109.44 149.746 106.04C153.146 102.527 155.866 98.3333 157.906 93.46C160.059 88.4733 161.589 83.3167 162.496 77.99C163.403 72.55 163.856 67.8467 163.856 63.88C163.856 60.48 163.516 57.6467 162.836 55.38C162.156 53.1133 161.249 51.3 160.116 49.94C158.983 48.58 157.736 47.6167 156.376 47.05C155.016 46.4833 153.599 46.2 152.126 46.2ZM261.921 36L249.511 93.8C248.944 96.0667 248.661 98.6167 248.661 101.45C248.661 103.377 249.001 105.133 249.681 106.72C250.361 108.307 251.777 109.1 253.931 109.1C256.651 109.1 259.371 107.457 262.091 104.17C264.924 100.883 267.587 96.35 270.081 90.57H276.371C273.651 97.71 270.931 103.377 268.211 107.57C265.491 111.65 262.827 114.767 260.221 116.92C257.727 119.073 255.291 120.433 252.911 121C250.644 121.68 248.604 122.02 246.791 122.02C243.051 122.02 239.934 120.717 237.441 118.11C235.061 115.503 233.644 111.253 233.191 105.36C230.584 110.007 226.957 113.973 222.311 117.26C217.777 120.433 212.791 122.02 207.351 122.02C204.631 122.02 201.967 121.567 199.361 120.66C196.754 119.64 194.431 118.053 192.391 115.9C190.351 113.633 188.707 110.8 187.461 107.4C186.214 103.887 185.591 99.6367 185.591 94.65C185.591 90.7967 185.987 86.66 186.781 82.24C187.687 77.82 188.934 73.4 190.521 68.98C192.107 64.56 194.147 60.31 196.641 56.23C199.134 52.15 201.967 48.58 205.141 45.52C208.314 42.3467 211.884 39.8533 215.851 38.04C219.931 36.1133 224.351 35.15 229.111 35.15C231.831 35.15 234.607 35.7733 237.441 37.02C240.274 38.2667 242.144 40.6467 243.051 44.16L244.751 36H261.921ZM214.491 109.1C216.304 109.1 218.174 108.647 220.101 107.74C222.027 106.72 223.841 105.417 225.541 103.83C227.354 102.13 228.941 100.147 230.301 97.88C231.661 95.6133 232.624 93.1767 233.191 90.57L241.351 51.98C241.011 50.0533 240.161 48.3533 238.801 46.88C237.441 45.2933 235.457 44.5 232.851 44.5C228.204 44.5 224.067 46.2 220.441 49.6C216.814 53 213.754 57.1367 211.261 62.01C208.767 66.8833 206.897 72.0967 205.651 77.65C204.404 83.2033 203.781 88.0767 203.781 92.27C203.781 98.73 204.744 103.15 206.671 105.53C208.597 107.91 211.204 109.1 214.491 109.1ZM301.76 29.71L298.87 42.8C301.477 40.5333 304.367 38.72 307.54 37.36C310.827 35.8867 314.34 35.15 318.08 35.15C321.027 35.15 323.747 35.66 326.24 36.68C328.734 37.7 330.887 39.3433 332.7 41.61C334.514 43.8767 335.93 46.8233 336.95 50.45C337.97 53.9633 338.48 58.3267 338.48 63.54C338.48 67.1667 338.197 71.1333 337.63 75.44C337.064 79.7467 336.157 84.11 334.91 88.53C333.664 92.8367 331.964 97.03 329.81 101.11C327.77 105.077 325.22 108.647 322.16 111.82C319.1 114.88 315.53 117.373 311.45 119.3C307.37 121.113 302.724 122.02 297.51 122.02C294.45 122.02 291.787 121.283 289.52 119.81C287.367 118.223 285.497 116.183 283.91 113.69L274.22 159.25L256.2 163.5L284.59 29.71H301.76ZM309.92 46.2C307.314 46.2 304.877 46.9367 302.61 48.41C300.457 49.8833 298.417 51.9233 296.49 54.53L285.61 105.19C286.857 107.343 288.33 108.873 290.03 109.78C291.844 110.687 293.43 111.14 294.79 111.14C299.89 111.14 304.14 109.44 307.54 106.04C310.94 102.527 313.66 98.3333 315.7 93.46C317.854 88.4733 319.384 83.3167 320.29 77.99C321.197 72.55 321.65 67.8467 321.65 63.88C321.65 60.48 321.31 57.6467 320.63 55.38C319.95 53.1133 319.044 51.3 317.91 49.94C316.777 48.58 315.53 47.6167 314.17 47.05C312.81 46.4833 311.394 46.2 309.92 46.2ZM419.715 36L407.305 93.8C406.738 96.0667 406.455 98.6167 406.455 101.45C406.455 103.377 406.795 105.133 407.475 106.72C408.155 108.307 409.572 109.1 411.725 109.1C414.445 109.1 417.165 107.457 419.885 104.17C422.718 100.883 425.382 96.35 427.875 90.57H434.165C431.445 97.71 428.725 103.377 426.005 107.57C423.285 111.65 420.622 114.767 418.015 116.92C415.522 119.073 413.085 120.433 410.705 121C408.438 121.68 406.398 122.02 404.585 122.02C400.845 122.02 397.728 120.717 395.235 118.11C392.855 115.503 391.438 111.253 390.985 105.36C388.378 110.007 384.752 113.973 380.105 117.26C375.572 120.433 370.585 122.02 365.145 122.02C362.425 122.02 359.762 121.567 357.155 120.66C354.548 119.64 352.225 118.053 350.185 115.9C348.145 113.633 346.502 110.8 345.255 107.4C344.008 103.887 343.385 99.6367 343.385 94.65C343.385 90.7967 343.782 86.66 344.575 82.24C345.482 77.82 346.728 73.4 348.315 68.98C349.902 64.56 351.942 60.31 354.435 56.23C356.928 52.15 359.762 48.58 362.935 45.52C366.108 42.3467 369.678 39.8533 373.645 38.04C377.725 36.1133 382.145 35.15 386.905 35.15C389.625 35.15 392.402 35.7733 395.235 37.02C398.068 38.2667 399.938 40.6467 400.845 44.16L402.545 36H419.715ZM372.285 109.1C374.098 109.1 375.968 108.647 377.895 107.74C379.822 106.72 381.635 105.417 383.335 103.83C385.148 102.13 386.735 100.147 388.095 97.88C389.455 95.6133 390.418 93.1767 390.985 90.57L399.145 51.98C398.805 50.0533 397.955 48.3533 396.595 46.88C395.235 45.2933 393.252 44.5 390.645 44.5C385.998 44.5 381.862 46.2 378.235 49.6C374.608 53 371.548 57.1367 369.055 62.01C366.562 66.8833 364.692 72.0967 363.445 77.65C362.198 83.2033 361.575 88.0767 361.575 92.27C361.575 98.73 362.538 103.15 364.465 105.53C366.392 107.91 368.998 109.1 372.285 109.1ZM458.195 36L455.475 48.75C457.628 45.8033 459.782 43.4233 461.935 41.61C464.088 39.7967 466.128 38.4367 468.055 37.53C470.095 36.51 471.965 35.8867 473.665 35.66C475.478 35.32 477.122 35.15 478.595 35.15C481.995 35.15 484.828 35.66 487.095 36.68C489.362 37.7 491.175 39.1167 492.535 40.93C493.895 42.63 494.802 44.67 495.255 47.05C495.822 49.3167 496.105 51.7533 496.105 54.36C496.105 58.1 495.652 62.01 494.745 66.09C493.952 70.17 493.045 74.1933 492.025 78.16C491.005 82.1267 490.042 86.0367 489.135 89.89C488.342 93.7433 487.945 97.37 487.945 100.77C487.945 103.15 488.285 105.133 488.965 106.72C489.645 108.307 491.005 109.1 493.045 109.1C498.372 109.1 503.698 102.923 509.025 90.57H515.315C512.595 97.71 509.875 103.377 507.155 107.57C504.435 111.763 501.772 114.937 499.165 117.09C496.672 119.13 494.292 120.433 492.025 121C489.872 121.68 487.945 122.02 486.245 122.02C480.352 122.02 476.158 120.207 473.665 116.58C471.172 112.84 469.925 108.25 469.925 102.81C469.925 99.07 470.322 95.16 471.115 91.08C472.022 87 472.985 82.9767 474.005 79.01C475.025 75.0433 475.932 71.2467 476.725 67.62C477.632 63.88 478.085 60.48 478.085 57.42C478.085 54.5867 477.575 52.32 476.555 50.62C475.535 48.92 473.552 48.07 470.605 48.07C463.578 48.07 457.288 54.1333 451.735 66.26L440.005 121H423.005L441.025 36H458.195ZM539.25 36L536.53 48.75C538.684 45.8033 540.837 43.4233 542.99 41.61C545.144 39.7967 547.184 38.4367 549.11 37.53C551.15 36.51 553.02 35.8867 554.72 35.66C556.534 35.32 558.177 35.15 559.65 35.15C563.05 35.15 565.884 35.66 568.15 36.68C570.417 37.7 572.23 39.1167 573.59 40.93C574.95 42.63 575.857 44.67 576.31 47.05C576.877 49.3167 577.16 51.7533 577.16 54.36C577.16 58.1 576.707 62.01 575.8 66.09C575.007 70.17 574.1 74.1933 573.08 78.16C572.06 82.1267 571.097 86.0367 570.19 89.89C569.397 93.7433 569 97.37 569 100.77C569 103.15 569.34 105.133 570.02 106.72C570.7 108.307 572.06 109.1 574.1 109.1C579.427 109.1 584.754 102.923 590.08 90.57H596.37C593.65 97.71 590.93 103.377 588.21 107.57C585.49 111.763 582.827 114.937 580.22 117.09C577.727 119.13 575.347 120.433 573.08 121C570.927 121.68 569 122.02 567.3 122.02C561.407 122.02 557.214 120.207 554.72 116.58C552.227 112.84 550.98 108.25 550.98 102.81C550.98 99.07 551.377 95.16 552.17 91.08C553.077 87 554.04 82.9767 555.06 79.01C556.08 75.0433 556.987 71.2467 557.78 67.62C558.687 63.88 559.14 60.48 559.14 57.42C559.14 54.5867 558.63 52.32 557.61 50.62C556.59 48.92 554.607 48.07 551.66 48.07C544.634 48.07 538.344 54.1333 532.79 66.26L521.06 121H504.06L522.08 36H539.25ZM666.036 36L653.626 93.8C653.399 95.0467 653.229 96.2933 653.116 97.54C653.003 98.7867 652.946 99.9767 652.946 101.11C652.946 103.49 653.343 105.417 654.136 106.89C655.043 108.363 656.629 109.1 658.896 109.1C659.689 109.1 660.483 109.043 661.276 108.93C662.183 108.817 663.203 108.533 664.336 108.08C662.976 113.52 661.163 117.203 658.896 119.13C656.629 121.057 653.966 122.02 650.906 122.02C647.166 122.02 644.049 120.717 641.556 118.11C639.176 115.503 637.759 111.253 637.306 105.36C634.699 110.007 631.073 113.973 626.426 117.26C621.893 120.433 616.906 122.02 611.466 122.02C608.746 122.02 606.083 121.567 603.476 120.66C600.869 119.64 598.546 118.053 596.506 115.9C594.466 113.633 592.823 110.8 591.576 107.4C590.329 103.887 589.706 99.6367 589.706 94.65C589.706 90.7967 590.103 86.66 590.896 82.24C591.803 77.82 593.049 73.4 594.636 68.98C596.223 64.56 598.263 60.31 600.756 56.23C603.249 52.15 606.083 48.58 609.256 45.52C612.429 42.3467 615.999 39.8533 619.966 38.04C624.046 36.1133 628.466 35.15 633.226 35.15C635.946 35.15 638.723 35.7733 641.556 37.02C644.389 38.2667 646.259 40.6467 647.166 44.16L648.866 36H666.036ZM618.606 109.1C620.419 109.1 622.289 108.647 624.216 107.74C626.143 106.72 627.956 105.417 629.656 103.83C631.469 102.13 633.056 100.147 634.416 97.88C635.776 95.6133 636.739 93.1767 637.306 90.57L645.466 51.98C645.126 50.0533 644.276 48.3533 642.916 46.88C641.556 45.2933 639.573 44.5 636.966 44.5C632.319 44.5 628.183 46.2 624.556 49.6C620.929 53 617.869 57.1367 615.376 62.01C612.883 66.8833 611.013 72.0967 609.766 77.65C608.519 83.2033 607.896 88.0767 607.896 92.27C607.896 98.73 608.859 103.15 610.786 105.53C612.713 107.91 615.319 109.1 618.606 109.1Z" fill="white"/>
</g>
<defs>
<filter id="filter0_dddddd_263_8" x="0.190002" y="0.130005" width="669.846" height="171.37" filterUnits="userSpaceOnUse" color-interpolation-filters="sRGB">
<feFlood flood-opacity="0" result="BackgroundImageFix"/>
<feColorMatrix in="SourceAlpha" type="matrix" values="0 0 0 0 0 0 0 0 0 0 0 0 0 0 0 0 0 0 127 0" result="hardAlpha"/>
<feOffset dy="4"/>
<feGaussianBlur stdDeviation="2"/>
<feComposite in2="hardAlpha" operator="out"/>
<feColorMatrix type="matrix" values="0 0 0 0 0 0 0 0 0 0 0 0 0 0 0 0 0 0 0.25 0"/>
<feBlend mode="normal" in2="BackgroundImageFix" result="effect1_dropShadow_263_8"/>
<feColorMatrix in="SourceAlpha" type="matrix" values="0 0 0 0 0 0 0 0 0 0 0 0 0 0 0 0 0 0 127 0" result="hardAlpha"/>
<feOffset dy="4"/>
<feGaussianBlur stdDeviation="2"/>
<feComposite in2="hardAlpha" operator="out"/>
<feColorMatrix type="matrix" values="0 0 0 0 0 0 0 0 0 0 0 0 0 0 0 0 0 0 0.25 0"/>
<feBlend mode="normal" in2="effect1_dropShadow_263_8" result="effect2_dropShadow_263_8"/>
<feColorMatrix in="SourceAlpha" type="matrix" values="0 0 0 0 0 0 0 0 0 0 0 0 0 0 0 0 0 0 127 0" result="hardAlpha"/>
<feOffset dy="4"/>
<feGaussianBlur stdDeviation="2"/>
<feComposite in2="hardAlpha" operator="out"/>
<feColorMatrix type="matrix" values="0 0 0 0 0 0 0 0 0 0 0 0 0 0 0 0 0 0 0.25 0"/>
<feBlend mode="normal" in2="effect2_dropShadow_263_8" result="effect3_dropShadow_263_8"/>
<feColorMatrix in="SourceAlpha" type="matrix" values="0 0 0 0 0 0 0 0 0 0 0 0 0 0 0 0 0 0 127 0" result="hardAlpha"/>
<feOffset dy="4"/>
<feGaussianBlur stdDeviation="2"/>
<feComposite in2="hardAlpha" operator="out"/>
<feColorMatrix type="matrix" values="0 0 0 0 0 0 0 0 0 0 0 0 0 0 0 0 0 0 0.25 0"/>
<feBlend mode="normal" in2="effect3_dropShadow_263_8" result="effect4_dropShadow_263_8"/>
<feColorMatrix in="SourceAlpha" type="matrix" values="0 0 0 0 0 0 0 0 0 0 0 0 0 0 0 0 0 0 127 0" result="hardAlpha"/>
<feOffset dy="4"/>
<feGaussianBlur stdDeviation="2"/>
<feComposite in2="hardAlpha" operator="out"/>
<feColorMatrix type="matrix" values="0 0 0 0 0 0 0 0 0 0 0 0 0 0 0 0 0 0 0.25 0"/>
<feBlend mode="normal" in2="effect4_dropShadow_263_8" result="effect5_dropShadow_263_8"/>
<feColorMatrix in="SourceAlpha" type="matrix" values="0 0 0 0 0 0 0 0 0 0 0 0 0 0 0 0 0 0 127 0" result="hardAlpha"/>
<feOffset dy="4"/>
<feGaussianBlur stdDeviation="2"/>
<feComposite in2="hardAlpha" operator="out"/>
<feColorMatrix type="matrix" values="0 0 0 0 0 0 0 0 0 0 0 0 0 0 0 0 0 0 0.25 0"/>
<feBlend mode="normal" in2="effect5_dropShadow_263_8" result="effect6_dropShadow_263_8"/>
<feBlend mode="normal" in="SourceGraphic" in2="effect6_dropShadow_263_8" result="shape"/>
</filter>
</defs>
</svg>
