<svg width="165" height="58" viewBox="0 0 165 58" fill="none" xmlns="http://www.w3.org/2000/svg">
<path d="M4 0H162V50H4V0Z" fill="#4C4556"/>
<g filter="url(#filter0_d_214_10)">
<path d="M19.2 22.68C19.2 23.8 19.08 25.0267 18.84 26.36C18.6267 27.6667 18.3067 28.9733 17.88 30.28C17.48 31.56 16.9733 32.8 16.36 34C15.7733 35.2 15.1067 36.2667 14.36 37.2C13.6133 38.1333 12.8 38.88 11.92 39.44C11.0667 39.9733 10.16 40.24 9.2 40.24C7.68 40.24 6.48 39.8533 5.6 39.08C4.72 38.3067 4.28 37.12 4.28 35.52C4.28 35.3067 4.29333 35.0267 4.32 34.68C4.34667 34.3333 4.4 33.9733 4.48 33.6L7.36 20H11.36L8.48 33.6C8.37333 34.0267 8.32 34.4667 8.32 34.92C8.32 35.5867 8.45333 36.1333 8.72 36.56C8.98667 36.9867 9.42667 37.2 10.04 37.2C10.7867 37.2 11.4667 36.96 12.08 36.48C12.72 35.9733 13.3067 35.32 13.84 34.52C14.3733 33.6933 14.84 32.7733 15.24 31.76C15.64 30.72 15.9733 29.68 16.24 28.64C16.5067 27.5733 16.7067 26.56 16.84 25.6C17 24.6133 17.08 23.7467 17.08 23C16.8933 23.16 16.6533 23.2533 16.36 23.28C16.0667 23.3067 15.84 23.32 15.68 23.32C15.3067 23.32 15.0133 23.1467 14.8 22.8C14.5867 22.4533 14.48 22.0533 14.48 21.6C14.48 21.0667 14.6533 20.5467 15 20.04C15.3467 19.5333 15.8533 19.28 16.52 19.28C17.3733 19.28 18.0267 19.5733 18.48 20.16C18.96 20.7467 19.2 21.5867 19.2 22.68ZM24.0966 14.24C24.0966 13.52 24.3499 12.8933 24.8566 12.36C25.3632 11.8267 25.9899 11.56 26.7366 11.56C27.4566 11.56 28.0832 11.8267 28.6166 12.36C29.1499 12.8933 29.4166 13.52 29.4166 14.24C29.4166 14.9867 29.1499 15.6133 28.6166 16.12C28.0832 16.6267 27.4566 16.88 26.7366 16.88C25.9899 16.88 25.3632 16.6267 24.8566 16.12C24.3499 15.6133 24.0966 14.9867 24.0966 14.24ZM27.8166 20L24.8966 33.6C24.7632 34.1333 24.6966 34.7333 24.6966 35.4C24.6966 35.8533 24.7766 36.2667 24.9366 36.64C25.0966 37.0133 25.4299 37.2 25.9366 37.2C26.5766 37.2 27.2166 36.8133 27.8566 36.04C28.5232 35.2667 29.1499 34.2 29.7366 32.84H31.2166C30.5766 34.52 29.9366 35.8533 29.2966 36.84C28.6566 37.8 28.0299 38.5333 27.4166 39.04C26.8299 39.5467 26.2566 39.8667 25.6966 40C25.1632 40.16 24.6832 40.24 24.2566 40.24C23.5632 40.24 22.9899 40.12 22.5366 39.88C22.0832 39.64 21.7232 39.32 21.4566 38.92C21.1899 38.52 20.9899 38.0533 20.8566 37.52C20.7499 36.9867 20.6966 36.4133 20.6966 35.8C20.6966 35.32 20.7232 34.8267 20.7766 34.32C20.8566 33.8133 20.9499 33.32 21.0566 32.84L23.7766 20H27.8166ZM37.1684 18.52L36.4884 21.6C37.1018 21.0667 37.7818 20.64 38.5284 20.32C39.3018 19.9733 40.1284 19.8 41.0084 19.8C41.7018 19.8 42.3418 19.92 42.9284 20.16C43.5151 20.4 44.0218 20.7867 44.4484 21.32C44.8751 21.8533 45.2084 22.5467 45.4484 23.4C45.6884 24.2267 45.8084 25.2533 45.8084 26.48C45.8084 27.3333 45.7418 28.2667 45.6084 29.28C45.4751 30.2933 45.2618 31.32 44.9684 32.36C44.6751 33.3733 44.2751 34.36 43.7684 35.32C43.2884 36.2533 42.6884 37.0933 41.9684 37.84C41.2484 38.56 40.4084 39.1467 39.4484 39.6C38.4884 40.0267 37.3951 40.24 36.1684 40.24C35.4484 40.24 34.8218 40.0667 34.2884 39.72C33.7818 39.3467 33.3418 38.8667 32.9684 38.28L30.6884 49L26.4484 50L33.1284 18.52H37.1684ZM39.0884 22.4C38.4751 22.4 37.9018 22.5733 37.3684 22.92C36.8618 23.2667 36.3818 23.7467 35.9284 24.36L33.3684 36.28C33.6618 36.7867 34.0084 37.1467 34.4084 37.36C34.8351 37.5733 35.2084 37.68 35.5284 37.68C36.7284 37.68 37.7284 37.28 38.5284 36.48C39.3284 35.6533 39.9684 34.6667 40.4484 33.52C40.9551 32.3467 41.3151 31.1333 41.5284 29.88C41.7418 28.6 41.8484 27.4933 41.8484 26.56C41.8484 25.76 41.7684 25.0933 41.6084 24.56C41.4484 24.0267 41.2351 23.6 40.9684 23.28C40.7018 22.96 40.4084 22.7333 40.0884 22.6C39.7684 22.4667 39.4351 22.4 39.0884 22.4ZM64.9225 20L62.0025 33.6C61.8692 34.1333 61.8025 34.7333 61.8025 35.4C61.8025 35.8533 61.8825 36.2667 62.0425 36.64C62.2025 37.0133 62.5358 37.2 63.0425 37.2C63.6825 37.2 64.3225 36.8133 64.9625 36.04C65.6292 35.2667 66.2558 34.2 66.8425 32.84H68.3225C67.6825 34.52 67.0425 35.8533 66.4025 36.84C65.7625 37.8 65.1358 38.5333 64.5225 39.04C63.9358 39.5467 63.3625 39.8667 62.8025 40C62.2692 40.16 61.7892 40.24 61.3625 40.24C60.4825 40.24 59.7492 39.9333 59.1625 39.32C58.6025 38.7067 58.2692 37.7067 58.1625 36.32C57.5492 37.4133 56.6958 38.3467 55.6025 39.12C54.5358 39.8667 53.3625 40.24 52.0825 40.24C51.4425 40.24 50.8158 40.1333 50.2025 39.92C49.5892 39.68 49.0425 39.3067 48.5625 38.8C48.0825 38.2667 47.6958 37.6 47.4025 36.8C47.1092 35.9733 46.9625 34.9733 46.9625 33.8C46.9625 32.8933 47.0558 31.92 47.2425 30.88C47.4558 29.84 47.7492 28.8 48.1225 27.76C48.4958 26.72 48.9758 25.72 49.5625 24.76C50.1492 23.8 50.8158 22.96 51.5625 22.24C52.3092 21.4933 53.1492 20.9067 54.0825 20.48C55.0425 20.0267 56.0825 19.8 57.2025 19.8C57.8425 19.8 58.4958 19.9467 59.1625 20.24C59.8292 20.5333 60.2692 21.0933 60.4825 21.92L60.8825 20H64.9225ZM53.7625 37.2C54.1892 37.2 54.6292 37.0933 55.0825 36.88C55.5358 36.64 55.9625 36.3333 56.3625 35.96C56.7892 35.56 57.1625 35.0933 57.4825 34.56C57.8025 34.0267 58.0292 33.4533 58.1625 32.84L60.0825 23.76C60.0025 23.3067 59.8025 22.9067 59.4825 22.56C59.1625 22.1867 58.6958 22 58.0825 22C56.9892 22 56.0158 22.4 55.1625 23.2C54.3092 24 53.5892 24.9733 53.0025 26.12C52.4158 27.2667 51.9758 28.4933 51.6825 29.8C51.3892 31.1067 51.2425 32.2533 51.2425 33.24C51.2425 34.76 51.4692 35.8 51.9225 36.36C52.3758 36.92 52.9892 37.2 53.7625 37.2ZM74.2966 18.52L73.6166 21.6C74.2299 21.0667 74.9099 20.64 75.6566 20.32C76.4299 19.9733 77.2566 19.8 78.1366 19.8C78.8299 19.8 79.4699 19.92 80.0566 20.16C80.6432 20.4 81.1499 20.7867 81.5766 21.32C82.0032 21.8533 82.3366 22.5467 82.5766 23.4C82.8166 24.2267 82.9366 25.2533 82.9366 26.48C82.9366 27.3333 82.8699 28.2667 82.7366 29.28C82.6032 30.2933 82.3899 31.32 82.0966 32.36C81.8032 33.3733 81.4032 34.36 80.8966 35.32C80.4166 36.2533 79.8166 37.0933 79.0966 37.84C78.3766 38.56 77.5366 39.1467 76.5766 39.6C75.6166 40.0267 74.5232 40.24 73.2966 40.24C72.5766 40.24 71.9499 40.0667 71.4166 39.72C70.9099 39.3467 70.4699 38.8667 70.0966 38.28L67.8166 49L63.5766 50L70.2566 18.52H74.2966ZM76.2166 22.4C75.6032 22.4 75.0299 22.5733 74.4966 22.92C73.9899 23.2667 73.5099 23.7467 73.0566 24.36L70.4966 36.28C70.7899 36.7867 71.1366 37.1467 71.5366 37.36C71.9632 37.5733 72.3366 37.68 72.6566 37.68C73.8566 37.68 74.8566 37.28 75.6566 36.48C76.4566 35.6533 77.0966 34.6667 77.5766 33.52C78.0832 32.3467 78.4432 31.1333 78.6566 29.88C78.8699 28.6 78.9766 27.4933 78.9766 26.56C78.9766 25.76 78.8966 25.0933 78.7366 24.56C78.5766 24.0267 78.3632 23.6 78.0966 23.28C77.8299 22.96 77.5366 22.7333 77.2166 22.6C76.8966 22.4667 76.5632 22.4 76.2166 22.4ZM102.051 20L99.1306 33.6C98.9973 34.1333 98.9306 34.7333 98.9306 35.4C98.9306 35.8533 99.0106 36.2667 99.1706 36.64C99.3306 37.0133 99.664 37.2 100.171 37.2C100.811 37.2 101.451 36.8133 102.091 36.04C102.757 35.2667 103.384 34.2 103.971 32.84H105.451C104.811 34.52 104.171 35.8533 103.531 36.84C102.891 37.8 102.264 38.5333 101.651 39.04C101.064 39.5467 100.491 39.8667 99.9306 40C99.3973 40.16 98.9173 40.24 98.4906 40.24C97.6106 40.24 96.8773 39.9333 96.2906 39.32C95.7306 38.7067 95.3973 37.7067 95.2906 36.32C94.6773 37.4133 93.824 38.3467 92.7306 39.12C91.664 39.8667 90.4906 40.24 89.2106 40.24C88.5706 40.24 87.944 40.1333 87.3306 39.92C86.7173 39.68 86.1706 39.3067 85.6906 38.8C85.2106 38.2667 84.824 37.6 84.5306 36.8C84.2373 35.9733 84.0906 34.9733 84.0906 33.8C84.0906 32.8933 84.184 31.92 84.3706 30.88C84.584 29.84 84.8773 28.8 85.2506 27.76C85.624 26.72 86.104 25.72 86.6906 24.76C87.2773 23.8 87.944 22.96 88.6906 22.24C89.4373 21.4933 90.2773 20.9067 91.2106 20.48C92.1706 20.0267 93.2106 19.8 94.3306 19.8C94.9706 19.8 95.624 19.9467 96.2906 20.24C96.9573 20.5333 97.3973 21.0933 97.6106 21.92L98.0106 20H102.051ZM90.8906 37.2C91.3173 37.2 91.7573 37.0933 92.2106 36.88C92.664 36.64 93.0906 36.3333 93.4906 35.96C93.9173 35.56 94.2906 35.0933 94.6106 34.56C94.9306 34.0267 95.1573 33.4533 95.2906 32.84L97.2106 23.76C97.1306 23.3067 96.9306 22.9067 96.6106 22.56C96.2906 22.1867 95.824 22 95.2106 22C94.1173 22 93.144 22.4 92.2906 23.2C91.4373 24 90.7173 24.9733 90.1306 26.12C89.544 27.2667 89.104 28.4933 88.8106 29.8C88.5173 31.1067 88.3706 32.2533 88.3706 33.24C88.3706 34.76 88.5973 35.8 89.0506 36.36C89.504 36.92 90.1173 37.2 90.8906 37.2ZM111.105 20L110.465 23C110.971 22.3067 111.478 21.7467 111.985 21.32C112.491 20.8933 112.971 20.5733 113.425 20.36C113.905 20.12 114.345 19.9733 114.745 19.92C115.171 19.84 115.558 19.8 115.905 19.8C116.705 19.8 117.371 19.92 117.905 20.16C118.438 20.4 118.865 20.7333 119.185 21.16C119.505 21.56 119.718 22.04 119.825 22.6C119.958 23.1333 120.025 23.7067 120.025 24.32C120.025 25.2 119.918 26.12 119.705 27.08C119.518 28.04 119.305 28.9867 119.065 29.92C118.825 30.8533 118.598 31.7733 118.385 32.68C118.198 33.5867 118.105 34.44 118.105 35.24C118.105 35.8 118.185 36.2667 118.345 36.64C118.505 37.0133 118.825 37.2 119.305 37.2C120.558 37.2 121.811 35.7467 123.065 32.84H124.545C123.905 34.52 123.265 35.8533 122.625 36.84C121.985 37.8267 121.358 38.5733 120.745 39.08C120.158 39.56 119.598 39.8667 119.065 40C118.558 40.16 118.105 40.24 117.705 40.24C116.318 40.24 115.331 39.8133 114.745 38.96C114.158 38.08 113.865 37 113.865 35.72C113.865 34.84 113.958 33.92 114.145 32.96C114.358 32 114.585 31.0533 114.825 30.12C115.065 29.1867 115.278 28.2933 115.465 27.44C115.678 26.56 115.785 25.76 115.785 25.04C115.785 24.3733 115.665 23.84 115.425 23.44C115.185 23.04 114.718 22.84 114.025 22.84C112.371 22.84 110.891 24.2667 109.585 27.12L106.825 40H102.825L107.065 20H111.105ZM130.177 20L129.537 23C130.043 22.3067 130.55 21.7467 131.057 21.32C131.563 20.8933 132.043 20.5733 132.497 20.36C132.977 20.12 133.417 19.9733 133.817 19.92C134.243 19.84 134.63 19.8 134.977 19.8C135.777 19.8 136.443 19.92 136.977 20.16C137.51 20.4 137.937 20.7333 138.257 21.16C138.577 21.56 138.79 22.04 138.897 22.6C139.03 23.1333 139.097 23.7067 139.097 24.32C139.097 25.2 138.99 26.12 138.777 27.08C138.59 28.04 138.377 28.9867 138.137 29.92C137.897 30.8533 137.67 31.7733 137.457 32.68C137.27 33.5867 137.177 34.44 137.177 35.24C137.177 35.8 137.257 36.2667 137.417 36.64C137.577 37.0133 137.897 37.2 138.377 37.2C139.63 37.2 140.883 35.7467 142.137 32.84H143.617C142.977 34.52 142.337 35.8533 141.697 36.84C141.057 37.8267 140.43 38.5733 139.817 39.08C139.23 39.56 138.67 39.8667 138.137 40C137.63 40.16 137.177 40.24 136.777 40.24C135.39 40.24 134.403 39.8133 133.817 38.96C133.23 38.08 132.937 37 132.937 35.72C132.937 34.84 133.03 33.92 133.217 32.96C133.43 32 133.657 31.0533 133.897 30.12C134.137 29.1867 134.35 28.2933 134.537 27.44C134.75 26.56 134.857 25.76 134.857 25.04C134.857 24.3733 134.737 23.84 134.497 23.44C134.257 23.04 133.79 22.84 133.097 22.84C131.443 22.84 129.963 24.2667 128.657 27.12L125.897 40H121.897L126.137 20H130.177ZM160.008 20L157.088 33.6C157.035 33.8933 156.995 34.1867 156.968 34.48C156.942 34.7733 156.928 35.0533 156.928 35.32C156.928 35.88 157.022 36.3333 157.208 36.68C157.422 37.0267 157.795 37.2 158.328 37.2C158.515 37.2 158.702 37.1867 158.888 37.16C159.102 37.1333 159.342 37.0667 159.608 36.96C159.288 38.24 158.862 39.1067 158.328 39.56C157.795 40.0133 157.168 40.24 156.448 40.24C155.568 40.24 154.835 39.9333 154.248 39.32C153.688 38.7067 153.355 37.7067 153.248 36.32C152.635 37.4133 151.782 38.3467 150.688 39.12C149.622 39.8667 148.448 40.24 147.168 40.24C146.528 40.24 145.902 40.1333 145.288 39.92C144.675 39.68 144.128 39.3067 143.648 38.8C143.168 38.2667 142.782 37.6 142.488 36.8C142.195 35.9733 142.048 34.9733 142.048 33.8C142.048 32.8933 142.142 31.92 142.328 30.88C142.542 29.84 142.835 28.8 143.208 27.76C143.582 26.72 144.062 25.72 144.648 24.76C145.235 23.8 145.902 22.96 146.648 22.24C147.395 21.4933 148.235 20.9067 149.168 20.48C150.128 20.0267 151.168 19.8 152.288 19.8C152.928 19.8 153.582 19.9467 154.248 20.24C154.915 20.5333 155.355 21.0933 155.568 21.92L155.968 20H160.008ZM148.848 37.2C149.275 37.2 149.715 37.0933 150.168 36.88C150.622 36.64 151.048 36.3333 151.448 35.96C151.875 35.56 152.248 35.0933 152.568 34.56C152.888 34.0267 153.115 33.4533 153.248 32.84L155.168 23.76C155.088 23.3067 154.888 22.9067 154.568 22.56C154.248 22.1867 153.782 22 153.168 22C152.075 22 151.102 22.4 150.248 23.2C149.395 24 148.675 24.9733 148.088 26.12C147.502 27.2667 147.062 28.4933 146.768 29.8C146.475 31.1067 146.328 32.2533 146.328 33.24C146.328 34.76 146.555 35.8 147.008 36.36C147.462 36.92 148.075 37.2 148.848 37.2Z" fill="white"/>
</g>
<defs>
<filter id="filter0_d_214_10" x="0.279785" y="11.56" width="163.729" height="46.44" filterUnits="userSpaceOnUse" color-interpolation-filters="sRGB">
<feFlood flood-opacity="0" result="BackgroundImageFix"/>
<feColorMatrix in="SourceAlpha" type="matrix" values="0 0 0 0 0 0 0 0 0 0 0 0 0 0 0 0 0 0 127 0" result="hardAlpha"/>
<feOffset dy="4"/>
<feGaussianBlur stdDeviation="2"/>
<feComposite in2="hardAlpha" operator="out"/>
<feColorMatrix type="matrix" values="0 0 0 0 0 0 0 0 0 0 0 0 0 0 0 0 0 0 0.25 0"/>
<feBlend mode="normal" in2="BackgroundImageFix" result="effect1_dropShadow_214_10"/>
<feBlend mode="normal" in="SourceGraphic" in2="effect1_dropShadow_214_10" result="shape"/>
</filter>
</defs>
</svg>
